# xmcd
#
# Track frame offsets:
#	150
#	21302
#	39487
#	58460
#	79362
#	99568
#	118610
#	137873
#	157557
#	178735
#	197979
#	216549
#	245580
#
# Disc length: 4192 seconds
#
# Revision: 5
# Processed by: cddbd v1.5.2PL0 Copyright (c) Steve Scherf et al.
# Submitted via: EasyCDDAExtractor 15.3.0.1
#
DISCID=c2105e0d
DTITLE=Eros Ramazzotti - Estilolibre
DYEAR=2000
DGENRE=Latin
TTITLE0=La Sombra Del Gigante
TTITLE1=Fuego En El Fuego
TTITLE2=El Alma De Los Arboles
TTITLE3=Un Angel No Es
TTITLE4=El Aguila Y El Condor
TTITLE5=Piu' Che Puoi (Duo Con Cher)
TTITLE6=Mi Amor Por Ti
TTITLE7=Quiero Saberlo
TTITLE8=Y En El Este Una Luz
TTITLE9=Azul Sin Par
TTITLE10=Mujer Amiga Mia
TTITLE11=Para Mi Sera Por Siempre
TTITLE12=Pista De Datos
EXTD=
EXTT0=
EXTT1=
EXTT2=
EXTT3=
EXTT4=
EXTT5=
EXTT6=
EXTT7=
EXTT8=
EXTT9=
EXTT10=
EXTT11=
EXTT12=
PLAYORDER=
